<svg width="585" height="432" viewBox="0 0 585 432" fill="none" xmlns="http://www.w3.org/2000/svg">
<rect x="1" y="139.822" width="457.368" height="290.625" rx="19" fill="white" stroke="#D0D9EF" stroke-width="2"/>
<rect x="125.828" y="1" width="457.368" height="291.624" rx="19" fill="white" stroke="#98ABD9" stroke-width="2"/>
<rect x="152.903" y="29" width="35.9995" height="28.2158" rx="4" fill="#D0D9EF"/>
<path fill-rule="evenodd" clip-rule="evenodd" d="M161.659 34.8643H164.578C164.823 34.8643 165.214 34.9461 165.514 35.1623C165.763 35.3417 166.01 35.6496 166.01 36.2967C166.01 36.9437 165.763 37.2516 165.514 37.431C165.214 37.6472 164.823 37.7291 164.578 37.7291H152.902V39.7291H159.687V45.5128H152.902V47.5128H163.605C164.094 47.5128 164.849 47.6676 165.453 48.1027C166.006 48.5011 166.497 49.1738 166.497 50.4046C166.497 51.6354 166.006 52.3082 165.453 52.7066C164.849 53.1416 164.094 53.2965 163.605 53.2965H162.145V55.2965H163.605C164.414 55.2965 165.604 55.0621 166.622 54.3296C167.69 53.5604 168.497 52.2873 168.497 50.4046C168.497 48.522 167.69 47.2488 166.622 46.4796C165.604 45.7471 164.414 45.5128 163.605 45.5128H161.687V39.7291H164.578C165.143 39.7291 165.969 39.5677 166.682 39.0541C167.447 38.5039 168.01 37.5955 168.01 36.2967C168.01 34.9978 167.447 34.0895 166.682 33.5392C165.969 33.0257 165.143 32.8643 164.578 32.8643H161.659V34.8643ZM180.146 34.8643H177.227C176.982 34.8643 176.591 34.9461 176.291 35.1623C176.042 35.3417 175.795 35.6496 175.795 36.2967C175.795 36.9437 176.042 37.2516 176.291 37.431C176.591 37.6472 176.982 37.7291 177.227 37.7291H188.902V39.7291H182.121V45.5128H188.902V47.5128H178.2C177.711 47.5128 176.956 47.6676 176.352 48.1027C175.798 48.5011 175.308 49.1738 175.308 50.4046C175.308 51.6354 175.798 52.3082 176.352 52.7066C176.956 53.1416 177.711 53.2965 178.2 53.2965H179.659V55.2965H178.2C177.391 55.2965 176.2 55.0621 175.183 54.3296C174.115 53.5604 173.308 52.2873 173.308 50.4046C173.308 48.522 174.115 47.2488 175.183 46.4796C176.2 45.7471 177.391 45.5128 178.2 45.5128H180.121V39.7291H177.227C176.662 39.7291 175.836 39.5677 175.122 39.0541C174.358 38.5039 173.795 37.5955 173.795 36.2967C173.795 34.9978 174.358 34.0895 175.122 33.5392C175.836 33.0257 176.662 32.8643 177.227 32.8643H180.146V34.8643Z" fill="white"/>
</svg>
