<svg width="592" height="333" viewBox="0 0 592 333" fill="none" xmlns="http://www.w3.org/2000/svg">
<rect x="133.098" y="41.1549" width="457.901" height="290.845" rx="19" fill="white" stroke="#D0D9EF" stroke-width="2"/>
<rect x="1" y="1" width="457.901" height="290.845" rx="19" fill="white" stroke="#98ABD9" stroke-width="2"/>
<rect x="28.0005" y="28.1838" width="35.7241" height="27.9324" rx="4" fill="#D0D9EF"/>
<path fill-rule="evenodd" clip-rule="evenodd" d="M36.6897 33.9998H39.5862C39.829 33.9998 40.215 34.0806 40.5115 34.2936C40.7568 34.4698 41 34.7715 41 35.4077C41 36.044 40.7568 36.3457 40.5115 36.5219C40.215 36.7348 39.829 36.8157 39.5862 36.8157H28V38.8157H34.7246V44.5212H28V46.5212H38.6207C39.1048 46.5212 39.8529 46.6743 40.4511 47.104C40.9982 47.4969 41.4828 48.1598 41.4828 49.374C41.4828 50.5881 40.9982 51.251 40.4511 51.644C39.8529 52.0736 39.1048 52.2267 38.6207 52.2267H37.1724V54.2267H38.6207C39.4239 54.2267 40.6068 53.9945 41.6179 53.2684C42.68 52.5055 43.4828 51.242 43.4828 49.374C43.4828 47.5059 42.68 46.2424 41.6179 45.4796C40.6068 44.7534 39.4239 44.5212 38.6207 44.5212H36.7246V38.8157H39.5862C40.148 38.8157 40.9689 38.6558 41.6782 38.1463C42.4386 37.6001 43 36.6978 43 35.4077C43 34.1176 42.4386 33.2153 41.6782 32.6691C40.9689 32.1597 40.148 31.9998 39.5862 31.9998H36.6897V33.9998ZM55.0351 33.9998H52.1386C51.8958 33.9998 51.5098 34.0806 51.2133 34.2936C50.968 34.4698 50.7248 34.7715 50.7248 35.4077C50.7248 36.044 50.968 36.3457 51.2133 36.5219C51.5098 36.7348 51.8958 36.8157 52.1386 36.8157H63.7246V38.8157H57.0027V44.5212H63.7246V46.5212H53.1039C52.6198 46.5212 51.8717 46.6743 51.2735 47.104C50.7264 47.4969 50.2419 48.1598 50.2419 49.374C50.2419 50.5881 50.7264 51.251 51.2735 51.644C51.8717 52.0736 52.6198 52.2267 53.1039 52.2267H54.5522V54.2267H53.1039C52.3007 54.2267 51.1178 53.9945 50.1068 53.2684C49.0446 52.5055 48.2419 51.242 48.2419 49.374C48.2419 47.5059 49.0446 46.2424 50.1068 45.4796C51.1178 44.7534 52.3007 44.5212 53.1039 44.5212H55.0027V38.8157H52.1386C51.5767 38.8157 50.7558 38.6558 50.0466 38.1463C49.2862 37.6001 48.7248 36.6978 48.7248 35.4077C48.7248 34.1176 49.2862 33.2153 50.0466 32.6691C50.7558 32.1597 51.5767 31.9998 52.1386 31.9998H55.0351V33.9998Z" fill="white"/>
</svg>
