<svg width="68" height="20" fill="none" xmlns="http://www.w3.org/2000/svg"><path d="m44.334 5.518-.28 1.42c-.23-.4-.639-.776-1.226-1.132a3.963 3.963 0 0 0-2.087-.532c-1.563 0-2.875.629-3.935 1.886-1.062 1.241-1.593 2.815-1.593 4.721 0 1.389.38 2.556 1.141 3.503a3.71 3.71 0 0 0 1.326 1.054c.515.242 1.076.36 1.642.342 1.161 0 2.13-.347 2.905-1.042l-.172.865 3.205.011L47.462 5.61l-3.128-.092Zm-1.997 7.384c-.252.314-.57.564-.928.734-.36.169-.752.252-1.146.243-.71 0-1.254-.218-1.63-.653-.378-.436-.566-1.043-.566-1.82a3.667 3.667 0 0 1 .813-2.426c.253-.315.572-.567.933-.737.36-.17.755-.253 1.151-.243.71 0 1.252.225 1.629.677.377.45.566 1.05.567 1.797a3.664 3.664 0 0 1-.823 2.428ZM33.006 1.102l-3.244 15.574h3.15L36.361 0l-3.355 1.102ZM26.11 9.785l-1.047-.253c-.599-.17-.86-.485-.874-.886-.023-.59.55-1.118 1.346-1.118.773 0 1.346.51 1.46 1.455l2.908-.955c-.468-1.665-1.997-2.755-4.128-2.755-2.783 0-4.765 1.665-4.676 3.922.06 1.541 1.047 2.592 2.878 2.993l1.075.275c.748.19 1.125.505 1.143.97.024.633-.552 1.079-1.346 1.079-.898 0-1.547-.508-1.69-1.322l-2.892.952c.62 1.695 2.287 2.62 4.402 2.62 2.803 0 4.766-1.623 4.679-3.854-.069-1.581-1.194-2.633-3.238-3.123ZM53.288 9.785l-1.047-.253c-.599-.17-.859-.485-.874-.886-.022-.59.55-1.118 1.347-1.118.773 0 1.346.51 1.46 1.455l2.907-.955c-.468-1.665-1.997-2.755-4.128-2.755-2.782 0-4.764 1.665-4.676 3.922.06 1.541 1.047 2.592 2.878 2.993l1.075.275c.748.19 1.125.505 1.143.97.024.633-.552 1.079-1.346 1.079-.898 0-1.547-.508-1.689-1.322l-2.893.952c.621 1.695 2.287 2.62 4.402 2.62 2.803 0 4.766-1.623 4.68-3.854-.07-1.581-1.194-2.633-3.24-3.123ZM65.196 5.766v-.012a5.573 5.573 0 0 0-3.194.863L63.314 0l-3.353 1.1-3.143 15.576h3.15l1.32-6.529c.391-1.139 1.117-1.779 2.026-1.779 1.065 0 1.61.864 1.346 2.192l-1.255 6.116h3.15l1.323-6.536c.505-2.455-.591-4.217-2.682-4.374Z" fill="#000"/><path d="M15.723 0 17.6 6.412 6.607 9.994 5.2 5.328 15.723 0Z" fill="#FF8CD1"/><path d="m15.033 8.593 1.72 4.762L1.705 20 0 12.877l15.033-4.284Z" fill="#0839CA"/></svg>