<svg width="39" height="24" fill="none" xmlns="http://www.w3.org/2000/svg"><g clip-path="url(#a)"><path d="M3.742 23.93H3.23V18h.512v5.93ZM7.516 18c.498 0 .94.07 1.341.207.401.139.733.332 1.01.595.276.262.483.567.635.94.152.36.222.774.222 1.23 0 .456-.07.871-.222 1.23a2.76 2.76 0 0 1-.636.94 2.715 2.715 0 0 1-1.009.595c-.4.139-.843.208-1.34.208H5.345v-5.931h2.17V18Zm-1.645.484v4.95h1.645c.429 0 .816-.056 1.148-.18.331-.111.608-.277.83-.498.22-.221.4-.47.51-.774.111-.305.18-.65.18-1.023 0-.374-.055-.72-.18-1.024a2.16 2.16 0 0 0-.51-.788 2.082 2.082 0 0 0-.83-.497 3.633 3.633 0 0 0-1.148-.18H5.871v.014Zm10.866-.553c.25 0 .498.027.733.083.235.055.456.138.664.249.207.11.4.235.567.387.165.152.317.318.428.511l-.428.29a2.04 2.04 0 0 0-.36-.414 2.082 2.082 0 0 0-.456-.318 3.123 3.123 0 0 0-.54-.207 2.123 2.123 0 0 0-.594-.07c-.36 0-.677.056-.981.18a2.31 2.31 0 0 0-1.313 1.313c-.125.305-.194.65-.194 1.037 0 .374.069.72.193 1.037.125.304.304.58.526.802.22.221.484.4.788.512.304.124.636.18.981.18.208 0 .401-.028.595-.07.193-.041.373-.11.539-.193.166-.083.318-.194.456-.318.138-.125.263-.263.36-.429l.428.304c-.124.18-.276.36-.442.498-.166.152-.36.276-.553.373a3.218 3.218 0 0 1-1.396.318 3.061 3.061 0 0 1-2.17-.843 2.688 2.688 0 0 1-.637-.954 3.2 3.2 0 0 1-.235-1.23c0-.443.083-.858.235-1.23.152-.374.373-.692.636-.955a3.063 3.063 0 0 1 2.17-.843Zm3.996 2.696c.083-.125.166-.25.276-.346.11-.097.221-.18.346-.235.124-.055.249-.11.387-.138a2.075 2.075 0 0 1 1.078.069c.208.069.387.18.526.318.152.138.262.304.345.511.083.194.125.429.125.664v2.447h-.484v-2.295c0-.207-.028-.387-.083-.54a1.041 1.041 0 0 0-.249-.414 1.343 1.343 0 0 0-.4-.262 1.635 1.635 0 0 0-.54-.083c-.18 0-.36.027-.525.096-.166.07-.305.152-.429.277a1.25 1.25 0 0 0-.29.414c-.07.166-.11.346-.11.54v2.267h-.457v-6.11h.484v2.82Zm5.972-.747c.263 0 .512.055.747.152s.428.235.594.415c.166.18.29.4.387.65.097.249.152.525.152.815V22.12H25.24c.014.235.069.442.152.622.083.18.193.332.332.456.138.125.304.221.47.29.18.07.373.097.58.097.277 0 .526-.055.747-.152.221-.097.415-.235.594-.415l.263.332a2.605 2.605 0 0 1-.387.318 2.759 2.759 0 0 1-.401.207 2.299 2.299 0 0 1-.415.111c-.138.028-.29.028-.428.028-.29 0-.553-.055-.802-.152a1.67 1.67 0 0 1-.636-.429c-.18-.18-.318-.4-.415-.65a2.272 2.272 0 0 1-.152-.83c0-.303.055-.58.152-.829.097-.248.235-.47.415-.65.18-.18.387-.317.622-.428.235-.11.484-.166.774-.166Zm-.014.429a1.41 1.41 0 0 0-.553.11c-.166.07-.318.166-.442.29a1.513 1.513 0 0 0-.318.443c-.083.166-.138.36-.152.553h2.848c-.014-.207-.07-.4-.139-.567a1.675 1.675 0 0 0-.304-.442 1.306 1.306 0 0 0-.428-.29 1.207 1.207 0 0 0-.512-.097Zm4.66-.429c.29 0 .566.055.829.152.249.11.47.263.65.456l-.318.332a1.692 1.692 0 0 0-.526-.36 1.648 1.648 0 0 0-.65-.124c-.22 0-.414.042-.608.125a1.504 1.504 0 0 0-.484.332 1.39 1.39 0 0 0-.318.511c-.083.194-.11.415-.11.636 0 .235.041.442.11.636.083.194.18.36.318.511.139.139.304.25.484.332.194.083.387.125.608.125.236 0 .457-.042.65-.139.194-.096.373-.207.526-.359l.304.332c-.18.207-.401.36-.65.456a2.252 2.252 0 0 1-.816.152 2.27 2.27 0 0 1-.83-.152 2.126 2.126 0 0 1-.649-.428c-.18-.18-.318-.401-.428-.65a2.251 2.251 0 0 1 0-1.632 1.72 1.72 0 0 1 .428-.65c.18-.18.4-.331.65-.428.262-.124.525-.166.83-.166Zm2.93 1.742h.65l1.673-1.687h.608l-1.894 1.88 1.936 2.102h-.609l-1.714-1.866h-.65v1.866h-.484v-6.11h.484v3.815Z" fill="#000"/><path d="M12.23 1.064H7.877V8.89h4.355V1.064Z" fill="#F26522"/><path d="M8.152 4.977c0-1.59.747-3 1.894-3.912A4.974 4.974 0 0 0 2 4.977a4.974 4.974 0 0 0 8.046 3.912 4.99 4.99 0 0 1-1.894-3.912Z" fill="#E51B24"/><path d="M18.106 4.977a4.974 4.974 0 0 1-8.046 3.912 4.99 4.99 0 0 0 1.894-3.912c0-1.59-.747-3-1.908-3.912A5.016 5.016 0 0 1 13.129 0a4.974 4.974 0 0 1 4.977 4.977Z" fill="#F99F1C"/><path d="M17.636 8.06v-.166h.069v-.028h-.166v.028h.07v.166h.027Zm.318 0v-.194h-.056l-.055.139-.055-.139h-.055v.194h.041v-.152l.055.124h.042l.055-.124v.152h.028Z" fill="#000"/></g><defs><clipPath id="a"><path fill="#fff" d="M0 0h39v24H0z"/></clipPath></defs></svg>