<svg width="39" height="24" fill="none" xmlns="http://www.w3.org/2000/svg"><g clip-path="url(#a)" fill="#10357F"><path d="M2.078 8.833-.005 2.448h.891l.994 3.147c.274.861.511 1.638.681 2.387h.02c.18-.745.446-1.546.729-2.379L4.39 2.45h.88L2.985 8.833h-.907ZM5.716 6.69c.02 1.13.739 1.592 1.573 1.592.435.014.869-.067 1.27-.237l.136.602c-.482.201-1.002.298-1.525.285-1.413 0-2.256-.93-2.256-2.313s.816-2.473 2.15-2.473c1.499 0 1.897 1.318 1.897 2.16-.002.13-.012.26-.03.388l-3.215-.003Zm2.444-.596c.012-.53-.217-1.356-1.155-1.356-.843 0-1.213.777-1.28 1.356H8.16ZM9.613 5.677c0-.539-.01-1.004-.037-1.432h.733l.027.9h.037c.209-.62.71-1.004 1.271-1.004a.9.9 0 0 1 .236.029v.787a1.23 1.23 0 0 0-.284-.029c-.587 0-1.003.446-1.117 1.07a2.276 2.276 0 0 0-.039.39v2.446h-.827V5.677ZM13.3 2.957a.517.517 0 0 1-1.032 0 .508.508 0 0 1 .524-.517.496.496 0 0 1 .511.52l-.002-.003Zm-.927 1.291h.836v4.586h-.836V4.248ZM14.295 8.833V4.88h-.645v-.634h.645v-.218c0-.645.143-1.232.53-1.602A1.593 1.593 0 0 1 15.942 2c.243 0 .484.045.71.133l-.113.644a1.254 1.254 0 0 0-.531-.103c-.71 0-.889.621-.889 1.328v.248h1.107v.634H15.12v3.95h-.824ZM17.977 2.958a.517.517 0 0 1-1.032 0 .507.507 0 0 1 .52-.52.496.496 0 0 1 .512.52Zm-.927 1.288h.832v4.586h-.832V4.246ZM19.352 6.69c.02 1.13.74 1.592 1.573 1.592.436.014.87-.067 1.27-.237l.143.602c-.483.201-1.003.298-1.526.285-1.412 0-2.255-.93-2.255-2.313s.815-2.473 2.149-2.473c1.498 0 1.895 1.318 1.895 2.16-.001.13-.011.26-.03.388l-3.219-.003Zm2.445-.596c.008-.53-.219-1.356-1.156-1.356-.843 0-1.212.777-1.28 1.356h2.436ZM27.218 2.106v5.542c0 .408.009.869.037 1.185h-.745l-.038-.796h-.025c-.256.512-.813.9-1.563.9-1.108 0-1.96-.94-1.96-2.332-.01-1.526.938-2.463 2.056-2.463.7 0 1.174.332 1.381.701h.02V2.106h.837Zm-.835 4.007a1.483 1.483 0 0 0-.038-.351 1.227 1.227 0 0 0-1.203-.966c-.869 0-1.374.757-1.374 1.773 0 .928.453 1.696 1.356 1.696a1.253 1.253 0 0 0 1.221-.994c.028-.117.04-.238.038-.358v-.8ZM30.305 8.833c.02-.314.037-.777.037-1.185V2.106h.823v2.88h.019c.294-.512.824-.843 1.564-.843 1.137 0 1.942.948 1.934 2.34 0 1.639-1.034 2.454-2.057 2.454-.664 0-1.194-.255-1.536-.861h-.027l-.04.757h-.717Zm.869-1.838a1.285 1.285 0 0 0 1.282 1.28c.87 0 1.393-.71 1.393-1.763 0-.92-.474-1.706-1.366-1.706a1.33 1.33 0 0 0-1.27 1.023c-.028.11-.044.222-.048.335l.009.83ZM35.594 4.246 36.6 6.957c.104.303.218.663.293.939h.018c.087-.274.18-.62.296-.957l.911-2.693H39l-1.255 3.269c-.596 1.573-1.005 2.378-1.573 2.871a2.282 2.282 0 0 1-1.023.542l-.209-.702c.268-.088.515-.227.73-.408.303-.251.543-.57.702-.929a.6.6 0 0 0 .066-.199.71.71 0 0 0-.058-.218l-1.695-4.22.91-.006ZM13.826 11.962l-2.524 6.392-1.023-5.435a1.13 1.13 0 0 0-1.117-.957h-4.14l-.055.272c.848.186 1.811.483 2.396.798.357.196.46.366.575.828l1.939 7.493h2.568l3.936-9.391h-2.555ZM17.42 11.96l-2.008 9.392h2.43l2.005-9.392H17.42ZM23.035 14.565c.008-.336.33-.694 1.03-.79.823-.075 1.65.07 2.397.421l.426-1.986a6.518 6.518 0 0 0-2.272-.418c-2.402 0-4.09 1.278-4.107 3.103-.012 1.35 1.208 2.11 2.127 2.555.947.46 1.266.754 1.26 1.168 0 .631-.755.907-1.451.917-1.223.02-1.93-.33-2.497-.591L19.51 21c.565.26 1.614.486 2.702.496 2.548 0 4.221-1.262 4.221-3.212.01-2.483-3.426-2.616-3.402-3.725M30.07 18.028l1.29-3.527.727 3.527h-2.018Zm.921-6.066a1.106 1.106 0 0 0-1.035.689l-3.643 8.701h2.552l.506-1.403h3.104l.292 1.403h2.252l-1.953-9.39h-2.075Z"/></g><defs><clipPath id="a"><path fill="#fff" d="M0 0h39v24H0z"/></clipPath></defs></svg>