<svg width="70" height="27" fill="none" xmlns="http://www.w3.org/2000/svg"><path d="m47.79 15.335.7.212a1.2 1.2 0 0 1-.221.494.908.908 0 0 1-.374.294c-.151.07-.338.105-.571.105-.28 0-.502-.035-.688-.117a1.07 1.07 0 0 1-.455-.435c-.129-.2-.199-.47-.199-.788 0-.423.117-.753.339-.988.221-.235.548-.341.956-.341.327 0 .572.07.758.2.187.13.327.33.409.611l-.7.153a.412.412 0 0 0-.082-.176.475.475 0 0 0-.163-.141.454.454 0 0 0-.21-.047.45.45 0 0 0-.408.223c-.07.106-.105.282-.105.506 0 .282.046.482.128.588.082.106.21.164.361.164.152 0 .269-.047.339-.129a.805.805 0 0 0 .187-.388ZM48.77 15.1c0-.424.117-.753.35-.988.234-.236.56-.353.98-.353.432 0 .758.117.992.34.233.236.35.553.35.977 0 .306-.047.553-.152.74a1.087 1.087 0 0 1-.443.448 1.45 1.45 0 0 1-.712.164c-.291 0-.525-.047-.723-.14a1.132 1.132 0 0 1-.466-.448c-.129-.211-.175-.435-.175-.74Zm.794 0c0 .258.046.446.14.564a.472.472 0 0 0 .396.176.499.499 0 0 0 .397-.164c.093-.118.14-.318.14-.6 0-.247-.047-.424-.152-.53-.093-.117-.233-.164-.396-.164a.464.464 0 0 0-.385.176c-.094.095-.14.283-.14.541ZM51.85 13.806h1.038l.396 1.575.397-1.575h1.038v2.587h-.653v-1.976l-.502 1.976h-.583l-.502-1.976v1.976h-.653v-2.587h.023ZM55.232 13.806h1.319c.291 0 .501.07.641.211.14.142.21.33.21.588 0 .259-.082.47-.233.612-.152.153-.397.223-.712.223h-.431v.964h-.794v-2.598Zm.794 1.105h.198c.152 0 .257-.024.327-.082.058-.06.093-.118.093-.2a.285.285 0 0 0-.082-.212c-.058-.059-.151-.082-.303-.082h-.222v.576h-.011ZM57.822 13.806h.793v1.952h1.237v.635h-2.03v-2.587ZM60.248 13.806h.793v2.587h-.793v-2.587ZM63.188 15.958h-.898l-.129.423h-.805l.969-2.587h.863l.968 2.587h-.828l-.14-.423Zm-.163-.553-.28-.929-.28.929h.56ZM64.401 13.806h.735l.968 1.434v-1.434h.747v2.587h-.747l-.956-1.423v1.423H64.4v-2.587ZM67.2 13.806h2.415v.635h-.805v1.952h-.793V14.44h-.805v-.635H67.2ZM38.249 17.745l2.298-.729-.747-1.67c-.548.694-1.096 1.588-1.551 2.4Zm-.782-7.632L32.965 0 0 1.882 9.133 27l17.58-5.586c-1.12-1.623-1.529-3.551-.234-4.492 1.446-1.058 3.628.165 5.016 1.893 1.341-2.258 5.109-7.514 5.972-8.702Z" fill="#225E63"/><path d="M31.938 7.308c1.376 0 2.496-1.058 2.496-2.375s-1.12-2.375-2.496-2.375c-1.377 0-2.497 1.058-2.497 2.375 0 1.305 1.12 2.375 2.497 2.375Zm-2.042 1.024h4.083v10.76h-4.083V8.332ZM27.878 11.472c.035.011.059 0 .059-.036V8.708c0-.035-.024-.07-.059-.094 0 0-.536-.353-2.17-.447-.08-.047-1.516-.059-1.9 0-5.95.482-6.171 4.822-6.171 5.01v1.058c0 .13 0 4.563 6.17 4.951.607.047 1.785 0 1.902 0 1.423 0 2.403-.435 2.403-.435a.089.089 0 0 0 .058-.082v-2.552c0-.036-.023-.047-.047-.024 0 0-.443.353-2.38.553-.547.059-.816.035-1.014 0-2.753-.47-2.881-2.493-2.881-2.493 0-.035-.012-.094-.012-.118v-.776c0-.035 0-.094.012-.117 0 0 .186-2.176 2.88-2.411h1.016c1.178.153 2.134.74 2.134.74ZM6.299 19.056c0 .036.023.06.058.06h3.978c.035 0 .058-.024.058-.06v-3.128c0-.035.023-.059.058-.059 0 0 6.358.46 6.358-3.833 0-3.399-3.99-3.763-5.296-3.704H6.357c-.035 0-.058.023-.058.058v10.666Zm4.024-5.574v-2.81h.98s1.411.059 1.528 1.035c.023.07.023.552 0 .576-.187 1.14-1.411 1.2-1.411 1.2h-1.097Z" fill="#FEFEFE"/><path d="M32.054 24.283c.327 0 .583 0 1.003-.188 1.447-.764 6.334-12.794 11.49-16.498a.356.356 0 0 0 .093-.095c.035-.047.035-.094.035-.094s0-.247-.758-.247c-4.584-.129-9.355 9.573-11.863 13.406-.035.047-.198 0-.198 0s-1.68-1.999-3.138-2.763c-.035-.012-.198-.07-.373-.059-.117 0-.793.141-1.108.47-.374.4-.362.624-.362 1.106 0 .035.023.2.07.282.362.635 1.983 2.893 3.325 4.14.198.152.513.54 1.784.54Z" fill="#2BBC5D"/><path d="M45.9 3.963h3.815c.758 0 1.364.106 1.82.306.466.212.851.506 1.143.882.303.388.525.835.653 1.34.14.506.21 1.047.21 1.623 0 .894-.105 1.588-.303 2.082a3.45 3.45 0 0 1-.84 1.246c-.362.33-.747.553-1.155.67a5.845 5.845 0 0 1-1.528.224H45.9V3.963Zm2.567 1.893v4.575h.63c.536 0 .921-.059 1.143-.176.221-.118.408-.33.536-.624.129-.294.198-.788.198-1.458 0-.894-.14-1.493-.431-1.823-.292-.329-.758-.494-1.435-.494h-.641ZM54.252 9.572l2.45-.153c.058.4.163.705.326.917.268.341.642.506 1.132.506.361 0 .653-.083.851-.259.198-.176.303-.376.303-.6 0-.211-.093-.411-.28-.588-.186-.176-.63-.329-1.318-.482-1.131-.258-1.924-.6-2.414-1.023-.49-.423-.723-.964-.723-1.623 0-.435.128-.835.373-1.223.245-.388.618-.682 1.12-.905.501-.224 1.178-.33 2.041-.33 1.062 0 1.878.2 2.426.6.56.4.887 1.035.992 1.905l-2.426.141c-.07-.376-.199-.646-.409-.823-.21-.176-.49-.258-.851-.258-.304 0-.525.058-.677.188a.586.586 0 0 0-.221.47c0 .13.058.259.186.365.117.106.408.211.863.305 1.12.247 1.925.494 2.415.741s.84.565 1.061.93c.222.364.327.787.327 1.246a2.66 2.66 0 0 1-.443 1.482c-.292.458-.712.8-1.237 1.034-.525.236-1.201.353-2.006.353-1.411 0-2.391-.27-2.94-.823-.536-.553-.84-1.246-.921-2.093ZM62.453 9.572l2.45-.153c.058.4.163.705.326.917.269.341.642.506 1.132.506.361 0 .653-.083.851-.259.199-.176.304-.376.304-.6 0-.211-.094-.411-.28-.588-.187-.176-.63-.329-1.319-.482-1.13-.258-1.924-.6-2.414-1.023a2.076 2.076 0 0 1-.723-1.623c0-.435.128-.835.373-1.223.245-.388.618-.682 1.12-.905.501-.224 1.178-.33 2.041-.33 1.062 0 1.878.2 2.426.6.56.4.887 1.035.992 1.905l-2.426.141c-.07-.376-.199-.646-.409-.823-.21-.176-.49-.258-.851-.258-.303 0-.525.058-.677.188a.586.586 0 0 0-.221.47c0 .13.058.259.186.365.117.106.409.211.864.305 1.12.247 1.924.494 2.414.741.49.247.84.565 1.062.93.221.364.326.787.326 1.246a2.66 2.66 0 0 1-.443 1.482c-.292.458-.712.8-1.237 1.034-.524.236-1.201.353-2.006.353-1.411 0-2.391-.27-2.94-.823-.548-.553-.85-1.246-.92-2.093Z" fill="#225E63"/></svg>